<svg data-v-423bf9ae="" xmlns="http://www.w3.org/2000/svg" viewBox="0 0 295 95" class="iconLeft"><!----><!----><!----><g data-v-423bf9ae="" id="4bd17233-b961-4f7a-bf5e-bb80c9562b2d" fill="black" transform="matrix(5.639098067841383,0,0,5.639098067841383,114.37180840577157,0.3762158304983103)"><path d="M7.08 3.71L8.48 3.71L4.97 13.51L3.57 13.51L0.06 3.71L1.46 3.71L4.27 11.65L7.08 3.71ZM11.84 13.65Q10.67 13.65 9.84 13.17Q9.00 12.68 8.57 11.86Q8.13 11.03 8.13 10.02L8.13 10.02Q8.13 9.06 8.53 8.25Q8.93 7.45 9.70 6.98Q10.46 6.51 11.49 6.51L11.49 6.51Q12.81 6.51 13.63 7.28Q14.45 8.05 14.45 9.41L14.45 9.41Q14.45 9.76 14.39 10.08L14.39 10.08L9.42 10.08Q9.55 11.41 10.23 11.97Q10.92 12.53 12.00 12.53L12.00 12.53Q13.08 12.53 13.97 12.12L13.97 12.12L14.14 13.12Q12.95 13.65 11.84 13.65L11.84 13.65ZM9.53 9.21L13.15 9.21Q13.15 8.47 12.73 8.05Q12.31 7.63 11.47 7.63L11.47 7.63Q10.65 7.63 10.19 8.03Q9.73 8.43 9.53 9.21L9.53 9.21ZM17.49 13.65Q16.56 13.65 16.14 13.17Q15.71 12.70 15.71 12.00L15.71 12.00L15.71 3.01L16.97 3.01L16.97 11.27Q16.97 11.89 17.05 12.17Q17.12 12.45 17.35 12.54Q17.57 12.64 18.07 12.64L18.07 12.64L17.89 13.65L17.49 13.65ZM21.95 13.65Q20.90 13.65 20.13 13.18Q19.36 12.71 18.96 11.90Q18.55 11.09 18.55 10.08L18.55 10.08Q18.55 9.07 18.96 8.26Q19.36 7.45 20.13 6.98Q20.90 6.51 21.95 6.51L21.95 6.51Q22.99 6.51 23.77 6.98Q24.54 7.45 24.95 8.26Q25.35 9.07 25.35 10.08L25.35 10.08Q25.35 11.09 24.95 11.90Q24.54 12.71 23.77 13.18Q22.99 13.65 21.95 13.65L21.95 13.65ZM21.95 12.53Q22.96 12.53 23.51 11.89Q24.07 11.24 24.07 10.08L24.07 10.08Q24.07 8.92 23.51 8.27Q22.96 7.63 21.95 7.63L21.95 7.63Q20.94 7.63 20.39 8.27Q19.84 8.92 19.84 10.08L19.84 10.08Q19.84 11.24 20.39 11.89Q20.94 12.53 21.95 12.53L21.95 12.53ZM25.69 13.51L28.08 10.09L25.75 6.65L27.16 6.65L28.88 9.37L30.46 6.65L31.93 6.65L29.68 9.98L32.02 13.51L30.60 13.51L28.87 10.81L27.10 13.51L25.69 13.51Z"></path></g><!----><g data-v-423bf9ae="" id="d76a8df5-1c23-47fc-9200-adb8d660b56b" transform="matrix(1.0257777743869358,0,0,1.0257777743869358,-3.454063073883219,-3.448888566758903)" stroke="none" fill="black"><path d="M53.88 25.92L51 43.46l12.36.54h.38a3.26 3.26 0 012.35 1.7 3.21 3.21 0 010 2.9L50.61 78.3a2.39 2.39 0 01-4.49-1.47L49 59.26l-12.37-.57h-.38a3.26 3.26 0 01-2.34-1.7 3.22 3.22 0 010-2.9l15.46-29.65a2.41 2.41 0 014.51 1.48zM50 3.84a4.76 4.76 0 100 9.53A36.67 36.67 0 0186.64 50a4.76 4.76 0 009.53 0A46.21 46.21 0 0050 3.84zm-4.83 87.55a4.76 4.76 0 004.75 4.77 4.76 4.76 0 10-4.76-4.77zM8.6 54.73A4.76 4.76 0 103.84 50a4.76 4.76 0 004.76 4.73zm18.26 35.22a4.76 4.76 0 10-1.73-6.51 4.78 4.78 0 001.73 6.51zm-1.67-73.42A4.76 4.76 0 1026.92 10a4.75 4.75 0 00-1.73 6.53zm-13.44 50a4.77 4.77 0 106.51 1.75 4.77 4.77 0 00-6.51-1.74zm74.05 9a4.76 4.76 0 10-2.38-.65 4.66 4.66 0 002.38.66zM16.54 25.16a4.76 4.76 0 101.74 6.51 4.76 4.76 0 00-1.74-6.51zm50 63.11a4.76 4.76 0 004.13 2.39A4.7 4.7 0 0073 90a4.76 4.76 0 10-6.5-1.75z"></path></g><!----></svg>