<svg data-v-fde0c5aa="" xmlns="http://www.w3.org/2000/svg" viewBox="0 0 300 300" class="font"><!----><defs data-v-fde0c5aa=""><!----></defs><rect data-v-fde0c5aa="" fill="transparent" x="0" y="0" width="300px" height="300px" class="logo-background-square"></rect><defs data-v-fde0c5aa=""><linearGradient data-v-fde0c5aa="" gradientTransform="rotate(25)" id="2d28dfd7-58fc-4697-8eab-f150cc85a777" x1="0%" y1="0%" x2="100%" y2="0%"><stop data-v-fde0c5aa="" offset="0%" stop-color="#B4373D" stop-opacity="1"></stop><stop data-v-fde0c5aa="" offset="100%" stop-color="#B23ACB" stop-opacity="1"></stop></linearGradient></defs><g data-v-fde0c5aa="" id="12d22ad0-50d0-458c-8dfa-bd5aaeb4c29e" fill="url(#2d28dfd7-58fc-4697-8eab-f150cc85a777)" transform="matrix(6.883604292011724,0,0,6.883604292011724,39.58698372606751,92.65957841389883)"><path d="M7.08 3.71L8.48 3.71L4.97 13.51L3.57 13.51L0.06 3.71L1.46 3.71L4.27 11.65L7.08 3.71ZM11.84 13.65Q10.67 13.65 9.84 13.17Q9.00 12.68 8.57 11.86Q8.13 11.03 8.13 10.02L8.13 10.02Q8.13 9.06 8.53 8.25Q8.93 7.45 9.70 6.98Q10.46 6.51 11.49 6.51L11.49 6.51Q12.81 6.51 13.63 7.28Q14.45 8.05 14.45 9.41L14.45 9.41Q14.45 9.76 14.39 10.08L14.39 10.08L9.42 10.08Q9.55 11.41 10.23 11.97Q10.92 12.53 12.00 12.53L12.00 12.53Q13.08 12.53 13.97 12.12L13.97 12.12L14.14 13.12Q12.95 13.65 11.84 13.65L11.84 13.65ZM9.53 9.21L13.15 9.21Q13.15 8.47 12.73 8.05Q12.31 7.63 11.47 7.63L11.47 7.63Q10.65 7.63 10.19 8.03Q9.73 8.43 9.53 9.21L9.53 9.21ZM17.49 13.65Q16.56 13.65 16.14 13.17Q15.71 12.70 15.71 12.00L15.71 12.00L15.71 3.01L16.97 3.01L16.97 11.27Q16.97 11.89 17.05 12.17Q17.12 12.45 17.35 12.54Q17.57 12.64 18.07 12.64L18.07 12.64L17.89 13.65L17.49 13.65ZM21.95 13.65Q20.90 13.65 20.13 13.18Q19.36 12.71 18.96 11.90Q18.55 11.09 18.55 10.08L18.55 10.08Q18.55 9.07 18.96 8.26Q19.36 7.45 20.13 6.98Q20.90 6.51 21.95 6.51L21.95 6.51Q22.99 6.51 23.77 6.98Q24.54 7.45 24.95 8.26Q25.35 9.07 25.35 10.08L25.35 10.08Q25.35 11.09 24.95 11.90Q24.54 12.71 23.77 13.18Q22.99 13.65 21.95 13.65L21.95 13.65ZM21.95 12.53Q22.96 12.53 23.51 11.89Q24.07 11.24 24.07 10.08L24.07 10.08Q24.07 8.92 23.51 8.27Q22.96 7.63 21.95 7.63L21.95 7.63Q20.94 7.63 20.39 8.27Q19.84 8.92 19.84 10.08L19.84 10.08Q19.84 11.24 20.39 11.89Q20.94 12.53 21.95 12.53L21.95 12.53ZM25.69 13.51L28.08 10.09L25.75 6.65L27.16 6.65L28.88 9.37L30.46 6.65L31.93 6.65L29.68 9.98L32.02 13.51L30.60 13.51L28.87 10.81L27.10 13.51L25.69 13.51Z"></path></g><!----><!----></svg>